<svg width="512" height="512" viewBox="0 0 680 680" xmlns="http://www.w3.org/2000/svg">
<defs>
<style>
.bg{fill:#E8C8D8;}.bg2{fill:#F0D0E0;}
.mane1{fill:#C8872A;}.mane2{fill:#E8A84A;}
.face{fill:#E8A84A;}.face2{fill:#F5C870;}
.snout{fill:#FDE8C0;}
.leaf{fill:#3A7A25;}.leaf2{fill:#5AAA35;}
.pr{fill:#8B1A2A;}.pr2{fill:#C02040;}
.pp1{fill:#4A1A5A;}.pp2{fill:#7A2A8A;}.pp3{fill:#B050C0;}
.pink1{fill:#D84080;}.pink2{fill:#F070A0;}
.ppl{fill:#72243E;}
.b1{fill:#9B1A6A;}.b2{fill:#C840A0;}.b3{fill:#7A3A9A;}.b4{fill:#B060C0;}
.bd{fill:#2A1A08;}
</style>
</defs>
<rect x="0" y="0" width="680" height="680" rx="120" class="bg"/>
<ellipse cx="340" cy="340" rx="255" ry="255" class="bg2"/>
<circle cx="340" cy="310" r="188" fill="none" stroke="#D4A030" stroke-width="2" stroke-dasharray="8,5"/>
<ellipse cx="340" cy="335" rx="165" ry="172" class="mane1"/>
<ellipse cx="238" cy="245" rx="70" ry="66" class="mane1"/>
<ellipse cx="442" cy="245" rx="70" ry="66" class="mane1"/>
<ellipse cx="200" cy="325" rx="60" ry="68" class="mane1"/>
<ellipse cx="480" cy="325" rx="60" ry="68" class="mane1"/>
<ellipse cx="215" cy="408" rx="56" ry="60" class="mane1"/>
<ellipse cx="465" cy="408" rx="56" ry="60" class="mane1"/>
<ellipse cx="340" cy="335" rx="148" ry="155" class="mane2"/>
<ellipse cx="220" cy="195" rx="14" ry="26" class="leaf" transform="rotate(-35,220,195)"/>
<ellipse cx="200" cy="218" rx="13" ry="22" class="leaf2" transform="rotate(-55,200,218)"/>
<ellipse cx="248" cy="172" rx="13" ry="22" class="leaf" transform="rotate(-15,248,172)"/>
<ellipse cx="340" cy="152" rx="12" ry="20" class="leaf2" transform="rotate(5,340,152)"/>
<ellipse cx="310" cy="158" rx="11" ry="18" class="leaf" transform="rotate(-20,310,158)"/>
<ellipse cx="370" cy="158" rx="11" ry="18" class="leaf" transform="rotate(20,370,158)"/>
<ellipse cx="460" cy="195" rx="14" ry="26" class="leaf" transform="rotate(35,460,195)"/>
<ellipse cx="480" cy="218" rx="13" ry="22" class="leaf2" transform="rotate(55,480,218)"/>
<ellipse cx="432" cy="172" rx="13" ry="22" class="leaf" transform="rotate(15,432,172)"/>
<ellipse cx="500" cy="265" rx="12" ry="20" class="leaf2" transform="rotate(45,500,265)"/>
<ellipse cx="185" cy="268" rx="12" ry="20" class="leaf2" transform="rotate(-45,185,268)"/>
<ellipse cx="192" cy="355" rx="11" ry="18" class="leaf" transform="rotate(-30,192,355)"/>
<ellipse cx="492" cy="355" rx="11" ry="18" class="leaf" transform="rotate(30,492,355)"/>
<circle cx="242" cy="188" r="40" class="pr"/><circle cx="222" cy="172" r="24" class="pr2"/><circle cx="248" cy="165" r="20" class="pr2"/><circle cx="262" cy="180" r="18" class="pr2"/><circle cx="240" cy="195" r="22" class="pr"/><circle cx="244" cy="180" r="13" fill="#E03058"/><circle cx="246" cy="175" r="7" fill="#F05070"/>
<circle cx="452" cy="178" r="46" class="pp1"/><circle cx="432" cy="158" r="28" class="pp2"/><circle cx="458" cy="152" r="24" class="pp2"/><circle cx="474" cy="168" r="22" class="pp2"/><circle cx="464" cy="185" r="20" class="pp1"/><circle cx="444" cy="190" r="18" class="pp1"/><circle cx="454" cy="172" r="13" class="pp3"/><circle cx="458" cy="165" r="7" fill="#E8C840"/>
<circle cx="340" cy="158" r="34" class="pink1"/><circle cx="324" cy="145" r="20" class="pink2"/><circle cx="344" cy="140" r="17" class="pink2"/><circle cx="357" cy="153" r="15" class="pink2"/><circle cx="338" cy="163" r="18" class="pink1"/><circle cx="340" cy="153" r="10" fill="#F8A8C8"/>
<circle cx="200" cy="285" r="28" class="pp1"/><circle cx="188" cy="273" r="18" class="pp2"/><circle cx="204" cy="268" r="15" class="pp2"/><circle cx="213" cy="280" r="13" class="pp2"/><circle cx="202" cy="290" r="12" class="pp1"/><circle cx="200" cy="278" r="8" class="pp3"/>
<circle cx="482" cy="280" r="28" class="pr"/><circle cx="470" cy="268" r="17" class="pr2"/><circle cx="486" cy="264" r="14" class="pr2"/><circle cx="494" cy="276" r="12" class="pr2"/><circle cx="484" cy="287" r="11" class="pr"/><circle cx="481" cy="275" r="7" fill="#E03058"/>
<circle cx="180" cy="360" r="22" class="pink1"/><circle cx="169" cy="350" r="13" class="pink2"/><circle cx="183" cy="345" r="11" class="pink2"/><circle cx="191" cy="358" r="10" class="pink2"/><circle cx="180" cy="357" r="7" fill="#F8A8C8"/>
<circle cx="502" cy="354" r="22" class="pp1"/><circle cx="491" cy="344" r="13" class="pp2"/><circle cx="506" cy="340" r="11" class="pp2"/><circle cx="514" cy="352" r="10" class="pp2"/><circle cx="502" cy="352" r="7" class="pp3"/>
<g transform="translate(130,195) rotate(-25)"><path d="M0,0 Q-30,-35 -55,-18 Q-45,5 0,0Z" class="b1"/><path d="M0,0 Q-28,-18 -50,5 Q-32,22 0,0Z" class="b2"/><path d="M0,0 Q25,-32 48,-16 Q40,6 0,0Z" class="b1"/><path d="M0,0 Q24,-16 44,6 Q28,20 0,0Z" class="b2"/><ellipse cx="0" cy="0" rx="4" ry="10" class="bd"/><circle cx="0" cy="-11" r="3" class="bd"/></g>
<g transform="translate(548,188) rotate(20)"><path d="M0,0 Q-28,-32 -52,-15 Q-42,7 0,0Z" class="b3"/><path d="M0,0 Q-26,-16 -46,7 Q-30,22 0,0Z" class="b4"/><path d="M0,0 Q26,-30 50,-14 Q42,8 0,0Z" class="b3"/><path d="M0,0 Q26,-15 46,8 Q30,22 0,0Z" class="b4"/><ellipse cx="0" cy="0" rx="4" ry="10" class="bd"/><circle cx="0" cy="-11" r="3" class="bd"/></g>
<g transform="translate(118,380) rotate(15)"><path d="M0,0 Q-20,-24 -38,-12 Q-30,5 0,0Z" class="b2"/><path d="M0,0 Q-18,-12 -34,5 Q-22,16 0,0Z" class="pink2"/><path d="M0,0 Q18,-22 36,-11 Q28,6 0,0Z" class="b2"/><path d="M0,0 Q18,-12 32,6 Q20,15 0,0Z" class="pink2"/><ellipse cx="0" cy="0" rx="3" ry="7" class="bd"/></g>
<g transform="translate(562,375) rotate(-15)"><path d="M0,0 Q-20,-24 -38,-12 Q-30,5 0,0Z" class="b4"/><path d="M0,0 Q-18,-12 -34,5 Q-22,16 0,0Z" class="pink1"/><path d="M0,0 Q18,-22 36,-11 Q28,6 0,0Z" class="b4"/><path d="M0,0 Q18,-12 32,6 Q20,15 0,0Z" class="pink1"/><ellipse cx="0" cy="0" rx="3" ry="7" class="bd"/></g>
<ellipse cx="340" cy="352" rx="120" ry="115" class="face"/>
<ellipse cx="340" cy="362" rx="106" ry="102" class="face2"/>
<ellipse cx="248" cy="255" rx="28" ry="24" class="face2"/><ellipse cx="432" cy="255" rx="28" ry="24" class="face2"/>
<ellipse cx="248" cy="255" rx="16" ry="13" class="pink1"/><ellipse cx="432" cy="255" rx="16" ry="13" class="pink1"/>
<ellipse cx="340" cy="392" rx="52" ry="40" class="snout"/>
<ellipse cx="340" cy="374" rx="10" ry="7" fill="#C07080"/>
<path d="M328 382 Q334 392 340 389 Q346 392 352 382" fill="none" stroke="#C07080" stroke-width="2.5" stroke-linecap="round"/>
<ellipse cx="290" cy="376" rx="22" ry="14" fill="#F8A0C0" opacity="0.55"/>
<ellipse cx="390" cy="376" rx="22" ry="14" fill="#F8A0C0" opacity="0.55"/>
<line x1="288" y1="376" x2="326" y2="379" stroke="white" stroke-width="1.5" stroke-linecap="round"/>
<line x1="288" y1="386" x2="326" y2="383" stroke="white" stroke-width="1.5" stroke-linecap="round"/>
<line x1="354" y1="379" x2="392" y2="376" stroke="white" stroke-width="1.5" stroke-linecap="round"/>
<line x1="354" y1="383" x2="392" y2="386" stroke="white" stroke-width="1.5" stroke-linecap="round"/>
<ellipse cx="306" cy="330" rx="27" ry="29" fill="#1A1008"/>
<ellipse cx="306" cy="328" rx="19" ry="21" fill="#7A4A18"/>
<ellipse cx="306" cy="328" rx="13" ry="15" fill="#1A1008"/>
<ellipse cx="296" cy="318" rx="8" ry="7" fill="white"/>
<circle cx="316" cy="335" r="4" fill="white"/>
<ellipse cx="374" cy="330" rx="27" ry="29" fill="#1A1008"/>
<ellipse cx="374" cy="328" rx="19" ry="21" fill="#7A4A18"/>
<ellipse cx="374" cy="328" rx="13" ry="15" fill="#1A1008"/>
<ellipse cx="364" cy="318" rx="8" ry="7" fill="white"/>
<circle cx="384" cy="335" r="4" fill="white"/>
<path d="M283 310 Q306 302 329 310" fill="none" stroke="#C8872A" stroke-width="3" stroke-linecap="round"/>
<path d="M351 310 Q374 302 397 310" fill="none" stroke="#C8872A" stroke-width="3" stroke-linecap="round"/>
<line x1="282" y1="318" x2="274" y2="308" stroke="#1A1008" stroke-width="2.2" stroke-linecap="round"/>
<line x1="288" y1="311" x2="282" y2="300" stroke="#1A1008" stroke-width="2.2" stroke-linecap="round"/>
<line x1="296" y1="305" x2="292" y2="294" stroke="#1A1008" stroke-width="2.2" stroke-linecap="round"/>
<line x1="306" y1="302" x2="304" y2="291" stroke="#1A1008" stroke-width="2.2" stroke-linecap="round"/>
<line x1="316" y1="305" x2="318" y2="294" stroke="#1A1008" stroke-width="2.2" stroke-linecap="round"/>
<line x1="324" y1="311" x2="330" y2="301" stroke="#1A1008" stroke-width="2.2" stroke-linecap="round"/>
<line x1="330" y1="318" x2="338" y2="309" stroke="#1A1008" stroke-width="2.2" stroke-linecap="round"/>
<line x1="350" y1="318" x2="342" y2="308" stroke="#1A1008" stroke-width="2.2" stroke-linecap="round"/>
<line x1="356" y1="311" x2="350" y2="300" stroke="#1A1008" stroke-width="2.2" stroke-linecap="round"/>
<line x1="364" y1="305" x2="360" y2="294" stroke="#1A1008" stroke-width="2.2" stroke-linecap="round"/>
<line x1="374" y1="302" x2="372" y2="291" stroke="#1A1008" stroke-width="2.2" stroke-linecap="round"/>
<line x1="384" y1="305" x2="386" y2="294" stroke="#1A1008" stroke-width="2.2" stroke-linecap="round"/>
<line x1="392" y1="311" x2="398" y2="301" stroke="#1A1008" stroke-width="2.2" stroke-linecap="round"/>
<line x1="398" y1="318" x2="406" y2="309" stroke="#1A1008" stroke-width="2.2" stroke-linecap="round"/>
<g transform="rotate(-20, 300, 492)">
  <rect x="279" y="454" width="19" height="70" rx="5" fill="white"/>
  <path d="M298 454 Q338 454 338 479 Q338 504 298 504 L298 454Z" fill="white"/>
  <rect x="282" y="457" width="13" height="64" rx="3" class="ppl"/>
  <path d="M295 457 Q332 457 332 479 Q332 501 295 501 L295 457Z" class="ppl"/>
  <ellipse cx="316" cy="479" rx="10" ry="13" fill="#F0D0E0"/>
</g>
<g transform="rotate(20, 380, 492)">
  <rect x="382" y="454" width="19" height="70" rx="5" fill="white"/>
  <path d="M382 454 Q342 454 342 479 Q342 504 382 504 L382 454Z" fill="white"/>
  <rect x="385" y="457" width="13" height="64" rx="3" class="ppl"/>
  <path d="M385 457 Q348 457 348 479 Q348 501 385 501 L385 457Z" class="ppl"/>
  <ellipse cx="364" cy="479" rx="10" ry="13" fill="#F0D0E0"/>
</g>
<path d="M325 482 Q339 469 340 482 Q341 469 355 482 Q355 501 340 514 Q325 501 325 482Z" fill="white"/>
<path d="M328 483 Q339 472 340 483 Q341 472 352 483 Q352 500 340 512 Q328 500 328 483Z" class="ppl"/>
</svg>
